<?xml version="1.0" encoding="UTF-8"?>
<svg id="Capa_1" data-name="Capa 1" xmlns="http://www.w3.org/2000/svg" xmlns:xlink="http://www.w3.org/1999/xlink" viewBox="0 0 1920 1080">
  <defs>
    <style>
      .cls-1 {
        fill: none;
      }

      .cls-1, .cls-2 {
        stroke-width: 0px;
      }

      .cls-3 {
        clip-path: url(#clippath);
      }

      .cls-2 {
        fill: #1e1d3e;
      }
    </style>
    <clipPath id="clippath">
      <rect class="cls-1" y="-.07" width="1920" height="1080.07"/>
    </clipPath>
  </defs>
  <g class="cls-3">
    <g>
      <path class="cls-2" d="m1471.88,990.56c110.91-129.58,221.27-258.53,332.26-388.22-13.29-21.71-26.55-43.39-40.49-66.17,55.48-23.73,110.14-47.1,166.2-71.08-1.84,60.15-3.64,118.72-5.46,178.43-17.17-1.9-33.51-3.71-49.85-5.52-3.82-.42-7.85-.23-11.44-1.41-14.65-4.81-23.25,2-32.58,13.34-115.68,140.7-231.9,280.95-347.99,421.3-2.26,2.73-4.61,5.39-7.49,8.75-18.08-13.47-35.74-26.59-53.36-39.75-76.27-56.94-152.59-113.79-228.68-170.98-6.75-5.08-11.25-5.4-18.28-.32-68.14,49.3-136.57,98.19-204.92,147.19-2.37,1.7-219.19,148.39-222.91,150.9-2.84-18.03-4.13-35.32-8.54-51.73-4.78-17.78.97-26.87,15.72-36.68,69.73-46.34,352.93-239.19,421.9-286.72,6.15-4.24,10.31-4.04,16.28.21,90.11,64.19,180.38,128.15,270.61,192.15,2.66,1.88,5.34,3.73,9.01,6.3Z"/>
      <path class="cls-2" d="m1470.55,913.73v-445.82h111.7c.14,2.86.43,6.03.43,9.21.03,100,.08,200.01-.15,300.01,0,4.41-1.35,9.86-4.06,13.07-33.83,40.13-68.04,79.93-102.12,119.85-1.35,1.58-2.33,3.5-3.49,5.25-.78-.53-1.55-1.06-2.33-1.59Z"/>
      <path class="cls-2" d="m1304.67,490.24h111.76v400.4c-8.3-5.78-15.55-10.78-22.74-15.87-27.48-19.47-54.85-39.1-82.48-58.35-4.99-3.48-6.67-7.27-6.66-13.36.18-100.87.12-201.75.12-302.62,0-3.25,0-6.5,0-10.2Z"/>
      <path class="cls-2" d="m1628.36,332.04h111.21c.18,2.92.51,5.79.51,8.66.04,47.57-.11,95.13.2,142.7.05,6.89-2.07,10.16-8.32,12.56-12.98,4.97-25.62,10.86-39.48,16.84,1.8,3.3,3.18,6.13,4.82,8.8,12.9,21.03,25.9,41.99,38.76,63.04,6.45,10.56,5.93,14.95-1.97,24.17-32.97,38.48-65.89,76.99-98.85,115.48-1.84,2.15-3.85,4.14-6.88,7.39v-399.63Z"/>
      <path class="cls-2" d="m1144.99,753.52v-176.24h111.04v199.2c-2.97-1.87-5.65-3.38-8.15-5.15-18.5-13.1-37.19-25.92-55.31-39.55-6.16-4.64-10.32-4.19-16.12.19-9.71,7.34-20.04,13.81-31.47,21.56Z"/>
      <path class="cls-2" d="m996.72,853.75v-175.88h111.39c.25,2.38.69,4.7.7,7.01.05,28.76.18,57.53-.14,86.29-.04,3.35-1.69,8.07-4.16,9.79-34.45,24.01-69.16,47.61-103.84,71.28-.9.61-2.07.8-3.94,1.5Z"/>
    </g>
  </g>
</svg>