<?xml version="1.0" encoding="UTF-8"?>
<svg id="Capa_1" data-name="Capa 1" xmlns="http://www.w3.org/2000/svg" viewBox="0 0 64.34 63.96">
  <defs>
    <style>
      .cls-1 {
        stroke-width: 0px;
      }
    </style>
  </defs>
  <path class="cls-1" d="m63.46,30.78v2.73c-.03.17-.06.33-.08.5-.11.97-.16,1.95-.32,2.92-.96,6.07-3.47,11.43-7.57,16-5.21,5.8-11.72,9.21-19.45,10.24-.74.1-1.49.17-2.23.25h-3.49c-.12-.03-.24-.07-.37-.08-7.72-.58-14.38-3.55-19.89-8.99C4.92,49.28,1.91,43.12.99,35.96c-.09-.73-.17-1.46-.25-2.19,0-1.11,0-2.22,0-3.32.03-.15.06-.3.08-.46.19-1.42.3-2.86.59-4.25,1.24-6.01,4.02-11.22,8.34-15.58C14.81,5.02,20.93,1.99,28.08,1.03c.71-.1,1.43-.17,2.15-.25,1.25,0,2.5,0,3.75,0,.8.09,1.6.17,2.4.28,6.85.99,12.79,3.86,17.71,8.73,5.2,5.13,8.24,11.36,9.13,18.63.1.79.16,1.58.24,2.36ZM10.7,51.47c.03-.13.07-.25.09-.37,1.48-7.33,8.1-13.09,15.56-13.4,3.53-.15,7.07-.12,10.61-.06,4.04.07,7.67,1.34,10.75,4.01,2.98,2.58,5.02,5.72,5.71,9.66.01.06.05.11.08.18,9.74-10.41,10.67-28.17-.92-39.81C40.82-.1,21.53.4,10.41,12.98-.07,24.84,1.53,41.79,10.7,51.47Z"/>
  <path class="cls-1" d="m20.12,24.32c0-6.6,5.34-11.95,11.95-11.95,6.62,0,11.97,5.32,11.97,11.93,0,6.57-5.37,11.97-11.9,11.97-6.64,0-12.02-5.34-12.02-11.94Z"/>
</svg>