<?xml version="1.0" encoding="UTF-8"?>
<svg id="Capa_1" data-name="Capa 1" xmlns="http://www.w3.org/2000/svg" xmlns:xlink="http://www.w3.org/1999/xlink" viewBox="0 0 355.12 103.15">
  <defs>
    <style>
      .cls-1 {
        fill: #eb6623;
      }

      .cls-1, .cls-2, .cls-3 {
        stroke-width: 0px;
      }

      .cls-2 {
        fill: url(#Degradado_sin_nombre_58);
      }

      .cls-3 {
        fill: #fff;
      }
    </style>
    <linearGradient id="Degradado_sin_nombre_58" data-name="Degradado sin nombre 58" x1="324.36" y1="1.84" x2="324.36" y2="101.15" gradientUnits="userSpaceOnUse">
      <stop offset="0" stop-color="#82adb6"/>
      <stop offset="0" stop-color="#f0a31d"/>
      <stop offset=".58" stop-color="#ec6d25"/>
      <stop offset="1" stop-color="#ec6a26"/>
    </linearGradient>
  </defs>
  <g>
    <path class="cls-3" d="m38.09,101.52c-2.3,0-5.3-.06-8.99-.17-4.82-.11-7.82-.18-8.99-.21l-12-.17c-1.2.03-2.93-.03-5.18-.17-.78-.14-1.16-.57-1.16-1.29,0-3.02.05-7.55.14-13.58.09-6.03.14-10.56.14-13.58,0-3.22-.09-8.04-.28-14.46-.19-6.42-.28-11.24-.28-14.46,0-.61.4-.92,1.2-.92s2,.04,3.59.12c1.59.08,2.78.12,3.55.12.88,0,2.19-.05,3.93-.15,1.74-.1,3.05-.15,3.93-.15.4,0,.59.26.56.79l-.04.54c-.32,5.22-.68,13.05-1.08,23.51l-.04,10.98c0,3.55.01,6.14.04,7.78.03.33.05.67.08,1,.03.33.23.54.6.62h1.04c2.41,0,6.02-.13,10.82-.4,4.8-.26,8.41-.4,10.82-.4.72,0,1.08.32,1.08.96,0,4.74-.34,8.83-1,12.27-.13.72-.42,1.15-.84,1.29-.13.06-.68.08-1.65.08Z"/>
    <path class="cls-3" d="m99.11,99.78c0,.5-.34.85-1,1.04-.8.22-3.29.33-7.47.33-3.83,0-6.29-.11-7.39-.33-.91-.19-1.49-.82-1.73-1.87-.91-3.99-1.62-6.13-2.13-6.41-.43-.19-4.01-.29-10.76-.29-4.55,0-6.97.12-7.27.37-.46.44-.96,1.93-1.53,4.45-.51,2.3-1.12,3.55-1.85,3.74-.91.22-3.96.33-9.15.33-4.1,0-6.14-.4-6.14-1.21,0-.72,3.02-9.58,9.07-26.59,6.56-18.39,10.12-28.5,10.68-30.33.32-1.05.7-1.58,1.12-1.58.72,0,1.84.07,3.35.21,1.51.14,2.64.21,3.39.21s1.79-.05,3.19-.15c1.41-.1,2.46-.15,3.15-.15.51,0,.98.46,1.41,1.37,1.31,2.91,5.14,12.9,11.48,29.96,6.37,17.17,9.56,26.13,9.56,26.88Zm-28.47-37.9c-.56,1.22-1.51,3.87-2.85,7.95-1.45,4.33-2.17,6.86-2.17,7.61,0,.5.8.78,2.41.83.83.06,2.19.08,4.1.08,1.77,0,2.74-.22,2.93-.67.05-.14.08-.33.08-.58,0-.92-.62-3.44-1.85-7.57-1.2-3.99-2.09-6.55-2.65-7.66Z"/>
    <path class="cls-3" d="m171.22,82.84c0,5.1-1.54,9.33-4.62,12.69-3.51,3.86-9.66,5.78-18.47,5.78-.67,0-1.63-.01-2.89-.04h-2.85c-9.88,0-15.75-.21-17.63-.62-.78-.17-1.16-.6-1.16-1.29,0-2.97.17-7.46.5-13.48.33-6.02.5-10.53.5-13.52,0-3.22-.16-9.26-.48-18.14-.08-2.27-.23-5.69-.44-10.24l-.04-.58c-.03-.53.39-.85,1.26-.96.87-.11,3.97-.17,9.29-.17,8.54,0,13.53.03,14.98.08,6.58.25,11.44,1.36,14.57,3.33,4.15,2.64,6.22,7.09,6.22,13.36,0,1.64-.48,3.37-1.45,5.2-.7,1.3-1.61,2.61-2.73,3.91-.99,1.14-1.49,1.66-1.49,1.58,0,.19.35.5,1.04.92,1.87,1.11,3.35,2.87,4.42,5.28.96,2.16,1.45,4.47,1.45,6.91Zm-17.26-23.42c0-2.39-1.15-3.97-3.45-4.74-1.28-.42-3.4-.62-6.34-.62s-4.34.22-4.34.67c0,.53-.05,1.33-.14,2.39-.09,1.07-.14,1.87-.14,2.39,0,2.77.23,4.33.68,4.66.29.25,1.99.37,5.1.37,5.75,0,8.63-1.71,8.63-5.12Zm1.2,23.26c0-2.5-1-4.19-3.01-5.08-1.28-.55-3.37-.83-6.26-.83-3.45,0-5.33.13-5.62.4-.3.26-.44,1.96-.44,5.1s.17,5.08.52,5.43c.35.35,2.27.52,5.78.52,2.89,0,4.92-.24,6.1-.71,1.95-.8,2.93-2.41,2.93-4.83Z"/>
    <path class="cls-3" d="m229.28,99.78c0,.5-.34.85-1,1.04-.8.22-3.29.33-7.47.33-3.83,0-6.29-.11-7.39-.33-.91-.19-1.49-.82-1.73-1.87-.91-3.99-1.62-6.13-2.13-6.41-.43-.19-4.01-.29-10.76-.29-4.55,0-6.97.12-7.27.37-.46.44-.96,1.93-1.53,4.45-.51,2.3-1.12,3.55-1.85,3.74-.91.22-3.96.33-9.15.33-4.1,0-6.14-.4-6.14-1.21,0-.72,3.02-9.58,9.07-26.59,6.56-18.39,10.12-28.5,10.68-30.33.32-1.05.7-1.58,1.12-1.58.72,0,1.84.07,3.35.21,1.51.14,2.64.21,3.39.21s1.79-.05,3.19-.15c1.41-.1,2.46-.15,3.15-.15.51,0,.98.46,1.41,1.37,1.31,2.91,5.14,12.9,11.48,29.96,6.37,17.17,9.56,26.13,9.56,26.88Zm-28.47-37.9c-.56,1.22-1.51,3.87-2.85,7.95-1.45,4.33-2.17,6.86-2.17,7.61,0,.5.8.78,2.41.83.83.06,2.19.08,4.1.08,1.77,0,2.74-.22,2.93-.67.05-.14.08-.33.08-.58,0-.92-.62-3.44-1.85-7.57-1.2-3.99-2.09-6.55-2.65-7.66Z"/>
    <path class="cls-3" d="m287.09,43.73c0,3.16-.13,7.91-.38,14.25-.25,6.34-.38,11.1-.38,14.29v27.42c0,.75-.39,1.12-1.16,1.12-.64,0-1.61.03-2.91.08-1.3.06-2.27.08-2.91.08-.7,0-1.74-.06-3.13-.17-1.39-.11-2.44-.17-3.13-.17-.48,0-1.06-.46-1.73-1.37-1.93-2.69-6.26-8.65-13.01-17.89-1.85-2.58-4.66-6.38-8.43-11.4-.11-.17-.31-.33-.6-.5-.21.19-.32.5-.32.92,0,3.22.09,8.04.26,14.48.17,6.44.26,11.26.26,14.48,0,.97-.36,1.46-1.08,1.46h-13.89c-.78,0-1.16-.43-1.16-1.29,0-3,.14-7.52.42-13.56.28-6.05.42-10.58.42-13.61,0-3.19-.13-7.96-.38-14.31-.25-6.35-.38-11.11-.38-14.27,0-.61.52-.92,1.57-.92,1.55,0,3.47-.11,5.74-.33.53-.06,1.59-.24,3.17-.54,1.34-.25,2.39-.37,3.17-.37.32,0,.82.47,1.49,1.41l14.98,21.26c1.34,1.91,3.36,4.72,6.06,8.4.67.86,1.24,1.29,1.73,1.29.35,0,.52-1.08.52-3.25,0-2.91-.15-7.29-.46-13.15-.31-5.85-.46-10.25-.46-13.19,0-1.03.28-1.54.84-1.54,1.61,0,4.03-.07,7.27-.21,3.24-.14,5.66-.21,7.27-.21.51,0,.76.43.76,1.29Z"/>
  </g>
  <g>
    <path class="cls-2" d="m353.46,32.33h-6.1c-.75,3.03-4.42,14.67-5.43,17.85-1.64,5.2-3.41,9.43-5.3,12.69,0,0-.01.02-.02.03-3.44,5.62-7.77,10.27-11.8,12.5-4.16,2.3-7.52,3.41-8.39,3.67-.01-.02.01.01,0,0-2.89,1.08-5.64.94-5.64,1.41,0,2.08.08,5.22.24,9.43.16,4.2.24,7.35.24,9.46,0,.86-.36,1.35-1.08,1.46-1.39.22-3.91.33-7.55.33s-5.78-.11-6.91-.33c-.78-.17-1.16-.6-1.16-1.29,0-2.99.14-7.51.42-13.56.28-6.05.42-10.58.42-13.61,0-3.22-.13-8.05-.4-14.5-.27-6.45-.41-11.28-.41-14.5,0-.61.28-.92.85-.92.83,0,2.08.04,3.75.12,1.67.09,2.92.12,3.75.12s2.13-.04,3.82-.12c1.69-.09,2.94-.12,3.77-.12.45,0,.68.25.68.75,0,2.05-.1,5.15-.3,9.3-.2,4.15-.3,7.25-.3,9.3,0,2.39.63,3.58,1.89,3.58,3.19,0,5.66-.9,7.43-2.71,1.31-1.33,2.64-3.75,3.98-7.28.82-2.58,5.71-17.24,7.83-23.05h-4.72c-.55,0-.88-.62-.6-1.1l17.27-28.93c.43-.71,1.48-.58,1.72.23l8.72,28.86c.14.46-.2.94-.67.94Z"/>
    <path class="cls-1" d="m343.98,98.49c0,1.19-.5,1.97-1.49,2.33-.8.28-2.92.42-6.35.42s-5.7-.14-7.23-.42c-.72-.14-1.2-.29-1.42-.44-.23-.15-.52-.55-.86-1.19-1.95-3.72-3.9-7.43-5.82-11.15-2.27-4.27-2.27-4.58-3.23-6.12,1.37-.43,4.21-1.36,7.99-3.44,1.66-.91,4.36-2.54,6.25-3.99,1.02,1.72,1.25,3.2,4.74,9.1,4.94,8.35,7.41,13.31,7.41,14.89Z"/>
  </g>
</svg>